<?xml version="1.0" standalone="no"?>
<!DOCTYPE svg PUBLIC "-//W3C//DTD SVG 20010904//EN"
 "http://www.w3.org/TR/2001/REC-SVG-20010904/DTD/svg10.dtd">
<svg version="1.0" xmlns="http://www.w3.org/2000/svg"
 width="1280.000000pt" height="1266.000000pt" viewBox="0 0 1280.000000 1266.000000"
 preserveAspectRatio="xMidYMid meet">
<g transform="translate(0.000000,1266.000000) scale(0.100000,-0.100000)"
fill="#000000" stroke="none">
<path d="M7275 12650 c-33 -5 -386 -75 -784 -155 l-723 -146 -67 15 c-257 57
-532 1 -763 -155 -62 -43 61 -15 -1348 -299 -621 -125 -2470 -498 -2654 -535
-126 -26 -264 -59 -307 -74 -234 -83 -459 -298 -557 -533 -49 -118 -65 -198
-65 -328 0 -107 8 -153 107 -640 59 -289 170 -835 246 -1215 77 -379 203
-1005 280 -1390 78 -385 199 -988 270 -1340 71 -352 242 -1200 380 -1885 138
-685 302 -1501 365 -1815 63 -314 126 -602 141 -642 35 -97 128 -235 208 -311
149 -139 307 -219 512 -257 147 -28 254 -18 659 65 793 162 2239 450 2257 450
11 0 351 -88 756 -196 405 -107 888 -235 1072 -284 952 -252 1205 -319 1660
-440 310 -83 529 -136 588 -143 402 -47 833 202 967 556 24 65 47 149 265 972
108 409 317 1193 660 2485 93 349 255 959 360 1355 105 396 267 1006 360 1355
211 794 531 1997 604 2275 31 116 60 244 66 285 27 185 -34 413 -161 602 -58
86 -192 216 -280 271 -108 67 -195 98 -495 177 -148 39 -503 134 -789 210
-457 122 -1706 453 -2445 649 l-254 68 -37 180 c-20 99 -46 206 -58 239 -70
187 -245 376 -441 474 -169 85 -388 124 -555 100z"/>
</g>
</svg>
